<?xml version="1.0" encoding="utf-8"?>
<!-- Generator: Adobe Illustrator 16.0.4, SVG Export Plug-In . SVG Version: 6.00 Build 0)  -->
<!DOCTYPE svg PUBLIC "-//W3C//DTD SVG 1.1//EN" "http://www.w3.org/Graphics/SVG/1.1/DTD/svg11.dtd">
<svg version="1.1" id="Layer_1" xmlns="http://www.w3.org/2000/svg" xmlns:xlink="http://www.w3.org/1999/xlink" x="0px" y="0px"
	 width="665.6px" height="665.6px" viewBox="0 0 665.6 665.6" enable-background="new 0 0 665.6 665.6" xml:space="preserve">
<g>
	<path fill="#FFFFFF" d="M64.033,603.6c0-179.937,0-359.873,0-539.904c179.861,0,359.756,0,539.809,0c0,179.904,0,359.904,0,539.904
		C423.982,603.6,244.024,603.6,64.033,603.6z M171.085,414.119c-10.519,0-20.275,0-30.615,0c0,15.424,0,30.337,0,45.65
		c-10.375,0-20.151,0-30.135,0c0,20.459,0,40.499,0,60.577c142.396,0,284.465,0,426.548,0c0-20.314,0-40.334,0-60.866
		c-10.193,0-19.935,0-30.184,0c0-15.413,0-30.312,0-45.847c-10.402,0-20.285,0-29.96,0c-0.287-0.956-0.462-1.267-0.462-1.576
		c-0.036-34.161-0.096-68.322,0.052-102.482c0.006-1.354,1.719-3.363,3.105-3.941c7.953-3.315,12.035-8.976,12.156-17.685
		c0.056-3.936,0.01-7.871,0.01-12.355c13.294,0,25.868,0,38.808,0c0-17.044,0.089-33.52-0.16-49.989
		c-0.021-1.385-2.051-3.215-3.579-4.033c-67.344-36.066-134.743-72.027-202.092-108.085c-2.506-1.342-4.371-1.291-6.824,0.056
		c-65.81,36.113-131.649,72.172-197.538,108.141c-2.64,1.441-3.307,3.144-3.279,5.916c0.122,11.997,0.052,23.996,0.052,35.995
		c0,3.934,0,7.866,0,12.239c13.261,0,25.853,0,38.938,0c0,4.735-0.075,9.029,0.017,13.319c0.164,7.64,3.929,13.214,10.941,15.739
		c3.682,1.325,4.262,3.122,4.252,6.456c-0.088,32.328-0.053,64.657-0.053,96.986C171.085,409.963,171.085,411.594,171.085,414.119z"
		/>
	<path fill-rule="evenodd" clip-rule="evenodd" d="M171.085,414.119c0-2.524,0-4.155,0-5.785c0-32.329-0.036-64.658,0.053-96.986
		c0.009-3.334-0.571-5.131-4.252-6.456c-7.012-2.525-10.777-8.1-10.941-15.739c-0.092-4.29-0.017-8.584-0.017-13.319
		c-13.086,0-25.677,0-38.938,0c0-4.373,0-8.306,0-12.239c0-11.999,0.07-23.998-0.052-35.995c-0.028-2.772,0.639-4.475,3.279-5.916
		c65.888-35.969,131.728-72.027,197.538-108.141c2.454-1.347,4.318-1.397,6.824-0.056c67.349,36.058,134.748,72.019,202.092,108.085
		c1.528,0.818,3.558,2.648,3.579,4.033c0.249,16.47,0.16,32.945,0.16,49.989c-12.939,0-25.514,0-38.808,0
		c0,4.484,0.046,8.42-0.01,12.355c-0.121,8.709-4.203,14.369-12.156,17.685c-1.387,0.578-3.1,2.587-3.105,3.941
		c-0.147,34.16-0.088,68.321-0.052,102.482c0,0.31,0.175,0.62,0.462,1.576c9.675,0,19.558,0,29.96,0c0,15.535,0,30.434,0,45.847
		c10.249,0,19.99,0,30.184,0c0,20.532,0,40.552,0,60.866c-142.083,0-284.152,0-426.548,0c0-20.078,0-40.118,0-60.577
		c9.984,0,19.76,0,30.135,0c0-15.313,0-30.227,0-45.65C150.81,414.119,160.566,414.119,171.085,414.119z M132.063,260.32
		c128.023,0,255.389,0,383.19,0c0-7.92-0.181-15.556,0.081-23.176c0.12-3.497-1.123-5.251-4.2-6.889
		c-61.988-32.98-123.922-66.066-185.805-99.244c-3.044-1.633-5.264-1.502-8.217,0.129c-30.592,16.889-61.266,33.631-91.917,50.413
		c-29.774,16.303-59.565,32.575-89.28,48.986c-1.611,0.89-3.613,2.889-3.682,4.448C131.87,243.28,132.063,251.595,132.063,260.32z
		 M521.955,475.222c-132.624,0-264.614,0-396.461,0c0,10.331,0,20.232,0,29.967c132.422,0,264.435,0,396.461,0
		C521.955,495.018,521.955,485.23,521.955,475.222z M156.032,459.412c111.928,0,223.594,0,335.804,0c0-5.22,0-10.174,0-15.128
		c0-4.921,0-9.842,0-14.825c-112.384,0-224.036,0-335.804,0C156.032,439.628,156.032,449.388,156.032,459.412z M292.754,413.627
		c0.212-0.925,0.349-1.243,0.35-1.562c0.028-34.14,0.083-68.278-0.064-102.417c-0.006-1.38-1.619-3.438-2.978-4.014
		c-8.001-3.394-12.017-9.025-12.06-17.701c-0.02-3.941-0.003-7.883-0.003-11.899c-10.5,0-20.385,0-30.759,0
		c0,4.455,0.051,8.585-0.011,12.714c-0.115,7.72-4.25,14.15-11.44,16.431c-3.348,1.062-3.824,2.679-3.816,5.685
		c0.087,32.808,0.051,65.615,0.066,98.423c0,1.438,0.173,2.877,0.268,4.341C252.686,413.627,272.618,413.627,292.754,413.627z
		 M369.373,275.956c0,4.529,0.08,8.817-0.018,13.102c-0.18,7.834-4.072,13.428-11.287,16.025c-3.439,1.238-4.037,2.884-4.027,6.081
		c0.099,32.461,0.058,64.922,0.07,97.383c0,1.615,0.134,3.23,0.211,4.98c20.439,0,40.477,0,60.51,0
		c0.193-0.792,0.408-1.259,0.408-1.727c0.029-34.126,0.079-68.251-0.083-102.376c-0.007-1.326-1.799-3.265-3.206-3.86
		c-7.627-3.226-11.816-9.069-11.891-17.347c-0.036-4.08-0.006-8.16-0.006-12.262C389.514,275.956,379.762,275.956,369.373,275.956z
		 M186.53,307.019c0,35.886,0,71.141,0,106.49c10.24,0,20.135,0,30.013,0c0-35.729,0-71.098,0-106.49
		C206.358,307.019,196.589,307.019,186.53,307.019z M338.742,413.634c0-35.867,0-71.112,0-106.541c-10.148,0-20.022,0-30.018,0
		c0,35.691,0,71.04,0,106.541C318.911,413.634,328.678,413.634,338.742,413.634z M430.878,307.02c0,35.633,0,70.995,0,106.419
		c10.232,0,20.097,0,29.902,0c0-35.687,0-70.944,0-106.419C450.722,307.02,440.974,307.02,430.878,307.02z M231.682,276.082
		c-20.342,0-40.392,0-60.682,0c0,3.54,0.219,6.716-0.053,9.849c-0.379,4.364,1.311,5.87,5.7,5.806
		c13.993-0.207,27.993,0.084,41.986-0.119c15.679-0.228,13.388,3.212,13.414-14.279C232.046,277.024,231.87,276.709,231.682,276.082
		z M293.075,275.96c0,4.164-0.366,8.015,0.181,11.731c0.217,1.474,2.448,3.77,3.789,3.788c17.815,0.252,35.636,0.228,53.452,0.031
		c1.238-0.014,3.392-1.83,3.514-2.979c0.434-4.067,0.17-8.208,0.17-12.572C333.713,275.96,313.792,275.96,293.075,275.96z
		 M415.173,275.975c0,4.212-0.32,8.203,0.177,12.09c0.17,1.329,2.377,3.413,3.675,3.43c17.814,0.227,35.634,0.214,53.45,0.025
		c1.288-0.014,3.545-1.746,3.661-2.855c0.437-4.185,0.175-8.441,0.175-12.689C455.537,275.975,435.627,275.975,415.173,275.975z"/>
	<path fill-rule="evenodd" clip-rule="evenodd" fill="#FFFFFF" d="M132.063,260.32c0-8.725-0.194-17.04,0.172-25.332
		c0.069-1.56,2.071-3.559,3.682-4.448c29.714-16.411,59.505-32.684,89.28-48.986c30.651-16.782,61.324-33.524,91.917-50.413
		c2.953-1.631,5.172-1.762,8.217-0.129c61.883,33.178,123.816,66.264,185.805,99.244c3.077,1.638,4.32,3.392,4.2,6.889
		c-0.262,7.62-0.081,15.256-0.081,23.176C387.452,260.32,260.087,260.32,132.063,260.32z"/>
	<path fill-rule="evenodd" clip-rule="evenodd" fill="#FFFFFF" d="M521.955,475.222c0,10.008,0,19.796,0,29.967
		c-132.026,0-264.04,0-396.461,0c0-9.734,0-19.636,0-29.967C257.341,475.222,389.331,475.222,521.955,475.222z"/>
	<path fill-rule="evenodd" clip-rule="evenodd" fill="#FFFFFF" d="M156.032,459.412c0-10.023,0-19.783,0-29.953
		c111.768,0,223.42,0,335.804,0c0,4.983,0,9.904,0,14.825c0,4.954,0,9.908,0,15.128
		C379.626,459.412,267.959,459.412,156.032,459.412z"/>
	<path fill-rule="evenodd" clip-rule="evenodd" fill="#FFFFFF" d="M292.754,413.627c-20.136,0-40.068,0-60.447,0
		c-0.094-1.464-0.267-2.902-0.268-4.341c-0.016-32.808,0.021-65.615-0.066-98.423c-0.008-3.006,0.469-4.623,3.816-5.685
		c7.189-2.28,11.325-8.711,11.44-16.431c0.062-4.129,0.011-8.259,0.011-12.714c10.375,0,20.259,0,30.759,0
		c0,4.017-0.017,7.958,0.003,11.899c0.043,8.676,4.059,14.308,12.06,17.701c1.359,0.576,2.972,2.634,2.978,4.014
		c0.146,34.139,0.092,68.277,0.064,102.417C293.103,412.384,292.966,412.703,292.754,413.627z"/>
	<path fill-rule="evenodd" clip-rule="evenodd" fill="#FFFFFF" d="M369.373,275.956c10.389,0,20.141,0,30.682,0
		c0,4.102-0.03,8.182,0.006,12.262c0.074,8.277,4.264,14.121,11.891,17.347c1.407,0.596,3.199,2.534,3.206,3.86
		c0.162,34.125,0.112,68.25,0.083,102.376c0,0.468-0.215,0.935-0.408,1.727c-20.033,0-40.07,0-60.51,0
		c-0.077-1.75-0.211-3.365-0.211-4.98c-0.013-32.461,0.028-64.922-0.07-97.383c-0.01-3.197,0.588-4.843,4.027-6.081
		c7.215-2.598,11.107-8.191,11.287-16.025C369.453,284.773,369.373,280.485,369.373,275.956z"/>
	<path fill-rule="evenodd" clip-rule="evenodd" fill="#FFFFFF" d="M186.53,307.019c10.059,0,19.828,0,30.013,0
		c0,35.393,0,70.762,0,106.49c-9.878,0-19.773,0-30.013,0C186.53,378.16,186.53,342.905,186.53,307.019z"/>
	<path fill-rule="evenodd" clip-rule="evenodd" fill="#FFFFFF" d="M338.742,413.634c-10.064,0-19.832,0-30.018,0
		c0-35.501,0-70.85,0-106.541c9.996,0,19.87,0,30.018,0C338.742,342.522,338.742,377.767,338.742,413.634z"/>
	<path fill-rule="evenodd" clip-rule="evenodd" fill="#FFFFFF" d="M430.878,307.02c10.096,0,19.844,0,29.902,0
		c0,35.475,0,70.732,0,106.419c-9.806,0-19.67,0-29.902,0C430.878,378.015,430.878,342.653,430.878,307.02z"/>
	<path fill-rule="evenodd" clip-rule="evenodd" fill="#FFFFFF" d="M231.682,276.082c0.188,0.628,0.365,0.942,0.364,1.256
		c-0.025,17.491,2.265,14.052-13.414,14.279c-13.993,0.203-27.993-0.088-41.986,0.119c-4.389,0.064-6.079-1.441-5.7-5.806
		c0.272-3.133,0.053-6.309,0.053-9.849C191.29,276.082,211.34,276.082,231.682,276.082z"/>
	<path fill-rule="evenodd" clip-rule="evenodd" fill="#FFFFFF" d="M293.075,275.96c20.717,0,40.638,0,61.105,0
		c0,4.364,0.264,8.505-0.17,12.572c-0.122,1.148-2.275,2.965-3.514,2.979c-17.816,0.196-35.637,0.221-53.452-0.031
		c-1.341-0.019-3.571-2.314-3.789-3.788C292.708,283.975,293.075,280.125,293.075,275.96z"/>
	<path fill-rule="evenodd" clip-rule="evenodd" fill="#FFFFFF" d="M415.173,275.975c20.454,0,40.364,0,61.138,0
		c0,4.248,0.262,8.505-0.175,12.689c-0.116,1.109-2.373,2.842-3.661,2.855c-17.816,0.188-35.636,0.201-53.45-0.025
		c-1.298-0.017-3.505-2.101-3.675-3.43C414.853,284.178,415.173,280.187,415.173,275.975z"/>
</g>
</svg>
