<?xml version="1.0" encoding="utf-8"?>
<!-- Generator: Adobe Illustrator 16.0.4, SVG Export Plug-In . SVG Version: 6.00 Build 0)  -->
<!DOCTYPE svg PUBLIC "-//W3C//DTD SVG 1.1//EN" "http://www.w3.org/Graphics/SVG/1.1/DTD/svg11.dtd">
<svg version="1.1" id="Layer_1" xmlns="http://www.w3.org/2000/svg" xmlns:xlink="http://www.w3.org/1999/xlink" x="0px" y="0px"
	 width="665.6px" height="665.6px" viewBox="0 0 665.6 665.6" enable-background="new 0 0 665.6 665.6" xml:space="preserve">
<g>
	<path fill="#FFFFFF" d="M64.036,603.6c0-179.935,0-359.869,0-539.902c179.857,0,359.75,0,539.804,0c0,179.902,0,359.902,0,539.902
		C423.987,603.6,244.029,603.6,64.036,603.6z M226.443,183.22c-7.579,0-14.222-0.066-20.863,0.018
		c-7.201,0.092-9.432,2.428-9.437,9.735c-0.016,22.495,0.075,44.991-0.126,67.485c-0.021,2.347-1.121,5.238-2.721,6.933
		c-17.389,18.414-34.899,36.716-52.578,54.851c-3.522,3.613-5.025,7.321-5.015,12.377c0.135,62.986,0.088,125.973,0.088,188.959
		c0,10.876,1.227,12.126,11.91,12.126c81.483,0.001,162.966-0.048,244.448,0.091c6.618,0.011,11.63-1.467,16.917-6.145
		c32.318-28.591,65.084-56.677,97.823-84.788c3.754-3.223,5.335-6.659,5.324-11.605c-0.124-61.32-0.079-122.641-0.083-183.961
		c0-8.19-2.118-10.396-10.26-10.422c-14.83-0.049-29.66-0.015-44.49-0.015c-1.78,0-3.56,0-5.859,0c0-2.599,0.008-4.56-0.001-6.521
		c-0.145-34.993-0.282-69.985-0.443-104.978c-0.029-6.343-2.399-8.837-8.68-8.841c-59.154-0.031-118.309-0.03-177.463,0
		c-6.252,0.003-8.771,2.589-8.824,8.795c-0.053,6.292-0.012,12.585-0.012,19.454c-6.816,0-13.265-0.049-19.713,0.013
		c-7.523,0.071-9.906,2.446-9.936,9.845C226.418,165.261,226.443,173.896,226.443,183.22z"/>
	<path fill-rule="evenodd" clip-rule="evenodd" d="M226.443,183.22c0-9.324-0.025-17.959,0.008-26.594
		c0.029-7.398,2.413-9.773,9.936-9.845c6.448-0.062,12.896-0.013,19.713-0.013c0-6.869-0.042-13.162,0.012-19.454
		c0.053-6.206,2.572-8.792,8.824-8.795c59.154-0.03,118.309-0.031,177.463,0c6.28,0.004,8.65,2.498,8.68,8.841
		c0.161,34.992,0.299,69.984,0.443,104.978c0.009,1.961,0.001,3.922,0.001,6.521c2.3,0,4.079,0,5.859,0
		c14.83,0,29.66-0.034,44.49,0.015c8.142,0.026,10.26,2.231,10.26,10.422c0.004,61.32-0.041,122.641,0.083,183.961
		c0.011,4.946-1.57,8.383-5.324,11.605c-32.739,28.111-65.505,56.197-97.823,84.788c-5.287,4.678-10.299,6.155-16.917,6.145
		c-81.482-0.139-162.965-0.09-244.448-0.091c-10.684,0-11.91-1.25-11.91-12.126c0-62.986,0.046-125.973-0.088-188.959
		c-0.011-5.056,1.492-8.764,5.015-12.377c17.679-18.135,35.189-36.437,52.578-54.851c1.6-1.694,2.7-4.586,2.721-6.933
		c0.201-22.494,0.111-44.99,0.126-67.485c0.005-7.308,2.236-9.644,9.437-9.735C212.221,183.154,218.864,183.22,226.443,183.22z
		 M151.074,521.299c80.436,0,160.331,0,240.46,0c0-61.156,0-122.034,0-183.107c-80.308,0-160.318,0-240.46,0
		C151.074,399.361,151.074,460.137,151.074,521.299z M376.438,196.758c-55.29,0-109.992,0-164.835,0c0,42.549,0,84.746,0,127.224
		c1.779,0.116,3.238,0.294,4.696,0.294c51.792,0.015,103.583-0.025,155.375,0.088c3.851,0.009,5.13-0.938,5.114-4.986
		c-0.148-39.468-0.088-78.937-0.1-118.405C376.688,199.672,376.537,198.372,376.438,196.758z M497.045,255.492
		c-1.29,0.851-1.835,1.15-2.312,1.533c-28.676,23.059-57.374,46.088-85.932,69.291c-1.479,1.201-2.463,3.895-2.467,5.896
		c-0.129,58.288-0.105,116.577-0.089,174.866c0,1.395,0.198,2.788,0.346,4.743c1.367-1.043,2.181-1.595,2.916-2.236
		c28.235-24.629,56.501-49.223,84.601-74.006c1.666-1.471,2.808-4.461,2.815-6.749c0.162-45.632,0.121-91.264,0.121-136.896
		C497.045,280.115,497.045,268.296,497.045,255.492z M406.931,161.349c-55.288,0-110.019,0-164.837,0c0,7.36,0,14.4,0,21.866
		c2.39,0,4.366,0,6.342,0c44.15,0.001,88.301-0.012,132.453,0.012c8.375,0.005,10.228,1.929,10.229,10.318
		c0.004,40.651,0.002,81.304,0.002,121.956c0,1.711,0,3.422,0,6.175c4.771-3.826,8.387-7.015,12.306-9.772
		c2.767-1.947,3.582-4.216,3.575-7.521c-0.103-45.982-0.069-91.966-0.069-137.949C406.931,164.943,406.931,163.454,406.931,161.349z
		 M271.425,146.768c2.257,0,4.216,0,6.175,0c44.313,0,88.626-0.007,132.939,0.006c8.785,0.002,10.846,2.067,10.883,10.867
		c0.184,44.312,0.354,88.625,0.527,132.938c0.007,1.739,0.001,3.479,0.001,6.29c4.38-3.505,8.129-6.007,11.205-9.164
		c1.731-1.777,3.319-4.635,3.329-7.012c0.191-47.811,0.146-95.622,0.128-143.434c-0.001-1.578-0.223-3.157-0.338-4.681
		c-55.256,0-109.945,0-164.85,0C271.425,137.305,271.425,141.592,271.425,146.768z M195.906,286.706
		c-12.445,12.981-24,25.035-36.005,37.558c12.654,0,24.349,0,36.005,0C195.906,311.917,195.906,299.982,195.906,286.706z
		 M451.94,272.79c8.281-6.675,15.629-12.597,23.828-19.205c-8.868,0-16.27,0-23.828,0C451.94,259.866,451.94,265.77,451.94,272.79z"
		/>
	<path fill-rule="evenodd" clip-rule="evenodd" fill="#FFFFFF" d="M151.074,521.299c0-61.162,0-121.938,0-183.107
		c80.143,0,160.152,0,240.46,0c0,61.073,0,121.951,0,183.107C311.405,521.299,231.51,521.299,151.074,521.299z M272.024,380.557
		c-9.483,0-18.967-0.028-28.45,0.01c-5.73,0.023-9.29,2.704-9.258,6.839c0.031,3.976,3.373,6.786,8.869,6.816
		c18.966,0.104,37.933,0.106,56.898-0.007c5.413-0.032,8.808-2.968,8.766-6.913c-0.042-3.941-3.576-6.697-8.875-6.729
		C290.658,380.517,281.341,380.557,272.024,380.557z"/>
	<path fill-rule="evenodd" clip-rule="evenodd" fill="#FFFFFF" d="M376.438,196.758c0.1,1.613,0.25,2.914,0.25,4.214
		c0.012,39.469-0.049,78.938,0.1,118.405c0.016,4.049-1.264,4.995-5.114,4.986c-51.792-0.113-103.583-0.073-155.375-0.088
		c-1.458,0-2.917-0.178-4.696-0.294c0-42.478,0-84.675,0-127.224C266.445,196.758,321.148,196.758,376.438,196.758z"/>
	<path fill-rule="evenodd" clip-rule="evenodd" fill="#FFFFFF" d="M497.045,255.492c0,12.805,0,24.623,0,36.442
		c0,45.632,0.041,91.264-0.121,136.896c-0.008,2.288-1.149,5.278-2.815,6.749c-28.1,24.783-56.365,49.377-84.601,74.006
		c-0.735,0.642-1.549,1.193-2.916,2.236c-0.147-1.955-0.346-3.349-0.346-4.743c-0.017-58.289-0.04-116.578,0.089-174.866
		c0.004-2.001,0.988-4.694,2.467-5.896c28.558-23.203,57.256-46.232,85.932-69.291C495.21,256.642,495.755,256.342,497.045,255.492z
		"/>
	<path fill-rule="evenodd" clip-rule="evenodd" fill="#FFFFFF" d="M406.931,161.349c0,2.104,0,3.594,0,5.084
		c0,45.983-0.033,91.967,0.069,137.949c0.007,3.306-0.809,5.574-3.575,7.521c-3.919,2.758-7.535,5.946-12.306,9.772
		c0-2.753,0-4.464,0-6.175c0-40.652,0.002-81.305-0.002-121.956c-0.001-8.39-1.854-10.313-10.229-10.318
		c-44.151-0.023-88.302-0.011-132.453-0.012c-1.977,0-3.953,0-6.342,0c0-7.466,0-14.506,0-21.866
		C296.912,161.349,351.643,161.349,406.931,161.349z"/>
	<path fill-rule="evenodd" clip-rule="evenodd" fill="#FFFFFF" d="M271.425,146.768c0-5.176,0-9.463,0-14.188
		c54.904,0,109.594,0,164.85,0c0.115,1.523,0.337,3.103,0.338,4.681c0.019,47.812,0.063,95.623-0.128,143.434
		c-0.01,2.377-1.598,5.234-3.329,7.012c-3.076,3.157-6.825,5.659-11.205,9.164c0-2.812,0.006-4.551-0.001-6.29
		c-0.174-44.313-0.344-88.626-0.527-132.938c-0.037-8.8-2.098-10.865-10.883-10.867c-44.312-0.013-88.626-0.006-132.939-0.006
		C275.641,146.768,273.682,146.768,271.425,146.768z"/>
	<path fill-rule="evenodd" clip-rule="evenodd" fill="#FFFFFF" d="M195.906,286.706c0,13.276,0,25.211,0,37.558
		c-11.656,0-23.351,0-36.005,0C171.906,311.741,183.461,299.687,195.906,286.706z"/>
	<path fill-rule="evenodd" clip-rule="evenodd" fill="#FFFFFF" d="M451.94,272.79c0-7.02,0-12.924,0-19.205
		c7.559,0,14.96,0,23.828,0C467.569,260.193,460.222,266.115,451.94,272.79z"/>
	<path fill-rule="evenodd" clip-rule="evenodd" d="M272.024,380.557c9.317,0,18.634-0.04,27.95,0.016
		c5.3,0.032,8.834,2.788,8.875,6.729c0.042,3.945-3.353,6.881-8.766,6.913c-18.966,0.113-37.933,0.111-56.898,0.007
		c-5.497-0.03-8.838-2.841-8.869-6.816c-0.032-4.135,3.528-6.815,9.258-6.839C253.057,380.529,262.541,380.557,272.024,380.557z"/>
</g>
</svg>
