<?xml version="1.0" encoding="utf-8"?>
<!-- Generator: Adobe Illustrator 16.0.4, SVG Export Plug-In . SVG Version: 6.00 Build 0)  -->
<!DOCTYPE svg PUBLIC "-//W3C//DTD SVG 1.1//EN" "http://www.w3.org/Graphics/SVG/1.1/DTD/svg11.dtd">
<svg version="1.1" id="Layer_1" xmlns="http://www.w3.org/2000/svg" xmlns:xlink="http://www.w3.org/1999/xlink" x="0px" y="0px"
	 width="665.6px" height="665.6px" viewBox="0 0 665.6 665.6" enable-background="new 0 0 665.6 665.6" xml:space="preserve">
<g>
	<g>
		<path d="M505.08,442.896l-90.763,79.239V341.329c0-1.017-0.045-3.426-0.045-3.426l14.718-11.839l1.016-0.803l75.075-60.4v178.032
			L505.08,442.896z M399.192,331.401v-131.65c0-3.685-3.356-6.839-7.275-6.839H249.6v-22.097h165.28v147.977L399.192,331.401
			L399.192,331.401z M158.834,531.307H399.75v-183.67H158.834V531.307L158.834,531.307z M204.216,296.119v38.362h-36.79
			L204.216,296.119L204.216,296.119z M219.343,333.964h165.278V206.071H219.343V333.964L219.343,333.964z M484.343,262.91
			l-24.688,19.855l-0.076-19.855H484.343L484.343,262.91z M512.933,248.691h-6.822c-0.576-0.075-1.148-0.045-1.725,0h-44.854
			l-0.393-113.66c0-3.699-3.359-6.851-7.291-6.851H271.443c-3.919,0-7.275,3.152-7.275,6.851v21.038h15.127v-14.204h165.279v153.039
			l-14.643,11.761l-0.484-143.216c0-3.698-3.357-6.85-7.275-6.85H241.762c-3.932,0-7.291,3.152-7.291,6.85v29.465h-22.964
			c-3.932,0-7.29,3.152-7.29,6.835v74.542l-2.149,2.182l-56.394,58.825c0,0-1.967,2.515-1.967,4.606v198.767
			c0,3.683,3.358,6.85,7.292,6.85h256.044c3.372,0,6.097-1.5,7.004-3.817l103.925-89.865c1.118-1.575,2.239-3.152,2.239-5.26
			V255.544c0-3.685-3.36-6.851-7.276-6.851L512.933,248.691z"/>
		<path d="M249.6,403.952h59.95c3.918,0,7.276-3.152,7.276-6.836s-3.358-6.851-7.276-6.851H249.6c-3.918,0-7.274,3.167-7.274,6.851
			C242.324,400.799,245.682,403.952,249.6,403.952"/>
	</g>
	<path fill="none" d="M0-0.65h665.6v666.9H0V-0.65z"/>
</g>
</svg>
