<?xml version="1.0" encoding="utf-8"?>
<!-- Generator: Adobe Illustrator 16.0.4, SVG Export Plug-In . SVG Version: 6.00 Build 0)  -->
<!DOCTYPE svg PUBLIC "-//W3C//DTD SVG 1.1//EN" "http://www.w3.org/Graphics/SVG/1.1/DTD/svg11.dtd">
<svg version="1.1" id="Layer_1" xmlns="http://www.w3.org/2000/svg" xmlns:xlink="http://www.w3.org/1999/xlink" x="0px" y="0px"
	 width="665.6px" height="665.6px" viewBox="0 0 665.6 665.6" enable-background="new 0 0 665.6 665.6" xml:space="preserve">
<g>
	<path fill="#FFFFFF" d="M64.027,603.6c0-179.94,0-359.88,0-539.91c179.871,0,359.77,0,539.82,0c0,179.91,0,359.91,0,539.91
		C423.972,603.6,244.013,603.6,64.027,603.6z M174.704,283.472c0,3.009,0,5.329,0,7.648c0,38.325,0.079,76.651-0.097,114.976
		c-0.023,5.023,1.663,8.525,5.45,11.564c11.177,8.968,23.75,15.305,37.189,20.005c26.938,9.42,54.858,13.568,83.221,15.231
		c40.02,2.348,79.535-0.629,118.288-11.396c18.097-5.028,35.173-12.23,50.272-23.68c4.295-3.256,6.532-7.05,6.345-12.694
		c-0.349-10.486-0.1-20.993-0.1-31.49c0-29.796,0-59.593,0-90.151c16.5-2.326,32.301,2.611,48.764,3.281c0,2.436,0,4.241,0,6.047
		c0,30.494-0.001,60.987,0,91.48c0.001,4.333-0.69,8.829,0.267,12.939c0.638,2.739,3.174,5.763,5.691,7.148
		c3.039,1.674,6.878,0.537,8.686-2.75c1.361-2.477,2.214-5.574,2.226-8.4c0.144-36.158,0.05-72.317,0.145-108.477
		c0.015-5.235,0.059-10.233-6.05-13.461c6.009-1.323,11.029-2.385,16.028-3.538c9.07-2.094,14.233-7.965,13.879-15.693
		c-0.361-7.875-6.477-14.237-15.147-15.362c-31.37-4.068-62.753-8.038-94.131-12.047c-38.314-4.895-76.613-9.912-114.952-14.598
		c-9.522-1.164-19.352-2.71-28.738-1.576c-34.039,4.113-67.948,9.298-101.908,14.064c-33.63,4.72-67.267,9.392-100.891,14.154
		c-8.558,1.212-14.469,7.23-15.042,14.939c-0.549,7.375,4.54,13.713,13.062,15.957c5.629,1.482,11.328,2.697,16.997,4.027
		C140.991,275.57,157.826,279.515,174.704,283.472z"/>
	<path fill-rule="evenodd" clip-rule="evenodd" d="M174.704,283.472c-16.877-3.957-33.713-7.902-50.548-11.851
		c-5.669-1.33-11.368-2.545-16.997-4.027c-8.522-2.244-13.611-8.582-13.062-15.957c0.574-7.709,6.484-13.728,15.042-14.939
		c33.624-4.763,67.261-9.435,100.891-14.154c33.96-4.767,67.869-9.951,101.908-14.064c9.386-1.134,19.216,0.412,28.738,1.576
		c38.339,4.686,76.638,9.703,114.952,14.598c31.378,4.009,62.761,7.979,94.131,12.047c8.671,1.125,14.786,7.487,15.147,15.362
		c0.354,7.729-4.809,13.6-13.879,15.693c-4.999,1.153-10.02,2.215-16.028,3.538c6.108,3.228,6.064,8.226,6.05,13.461
		c-0.095,36.159-0.001,72.318-0.145,108.477c-0.012,2.826-0.864,5.924-2.226,8.4c-1.808,3.287-5.646,4.424-8.686,2.75
		c-2.518-1.386-5.054-4.409-5.691-7.148c-0.957-4.11-0.266-8.606-0.267-12.939c-0.001-30.493,0-60.986,0-91.48
		c0-1.806,0-3.611,0-6.047c-16.463-0.67-32.264-5.607-48.764-3.281c0,30.559,0,60.355,0,90.151c0,10.497-0.249,21.004,0.1,31.49
		c0.188,5.645-2.05,9.438-6.345,12.694c-15.1,11.449-32.176,18.651-50.272,23.68c-38.753,10.768-78.269,13.744-118.288,11.396
		c-28.363-1.663-56.283-5.812-83.221-15.231c-13.438-4.7-26.012-11.037-37.189-20.005c-3.787-3.039-5.473-6.541-5.45-11.564
		c0.176-38.324,0.097-76.65,0.097-114.976C174.704,288.801,174.704,286.481,174.704,283.472z M191.861,287.48
		c-0.115,1.704-0.238,2.679-0.238,3.652c-0.011,36.819-0.062,73.639,0.128,110.456c0.01,2.053,1.512,5.061,3.21,5.981
		c9.761,5.292,19.455,10.981,29.799,14.868c21.951,8.246,45.02,11.725,68.334,13.522c36.398,2.808,72.582,1.426,108.314-6.435
		c18.588-4.089,36.615-9.885,52.568-20.841c3.191-2.192,4.477-4.631,4.458-8.618c-0.165-35.651-0.097-71.305-0.097-106.957
		c0-1.74,0-3.48,0-5.308c-1.307,0.082-1.812,0.05-2.291,0.151c-42.797,9.09-85.572,18.276-128.41,27.168
		c-4.894,1.016-10.333,1.346-15.173,0.335c-18.068-3.774-35.991-8.245-53.97-12.442C236.479,297.875,214.461,292.749,191.861,287.48
		z M545.594,253.721c-0.09-0.296-0.18-0.593-0.271-0.889c-23.612-3.045-47.223-6.106-70.837-9.131
		c-43.77-5.606-87.539-11.212-131.314-16.768c-8.41-1.067-16.964-3.248-25.255-2.557c-16.731,1.394-33.327,4.409-49.98,6.751
		c-39.075,5.496-78.151,10.985-117.226,16.485c-12.335,1.736-24.667,3.499-37.001,5.249c1.115,1.048,2.189,1.457,3.298,1.716
		c66.108,15.444,132.216,30.894,198.348,46.237c2.48,0.575,5.299,0.575,7.796,0.058c29.168-6.044,58.307-12.229,87.448-18.401
		c7.746-1.641,15.475-3.366,23.211-5.054c-5.906-1.469-11.687-2.163-17.47-2.823c-29.949-3.419-59.904-6.785-89.838-10.33
		c-2.339-0.276-5.441-1.182-6.566-2.874c-1.45-2.18-2.184-5.676-1.563-8.196c0.928-3.77,4.564-5.198,8.361-4.833
		c9.946,0.959,19.874,2.098,29.804,3.217c34.257,3.862,68.5,7.841,102.771,11.577c13.818,1.506,27.621,4.694,41.582,0.274
		c5.843-1.85,12.018-2.646,18.036-3.94C527.818,257.577,536.705,255.645,545.594,253.721z"/>
	<path fill-rule="evenodd" clip-rule="evenodd" fill="#FFFFFF" d="M191.861,287.48c22.601,5.269,44.618,10.396,66.632,15.534
		c17.979,4.197,35.902,8.668,53.97,12.442c4.84,1.011,10.279,0.681,15.173-0.335c42.838-8.892,85.613-18.078,128.41-27.168
		c0.479-0.102,0.984-0.069,2.291-0.151c0,1.827,0,3.567,0,5.308c0,35.652-0.068,71.306,0.097,106.957
		c0.019,3.987-1.267,6.426-4.458,8.618c-15.953,10.956-33.98,16.752-52.568,20.841c-35.732,7.86-71.917,9.242-108.314,6.435
		c-23.315-1.798-46.384-5.276-68.334-13.522c-10.344-3.887-20.038-9.576-29.799-14.868c-1.698-0.921-3.2-3.929-3.21-5.981
		c-0.19-36.817-0.139-73.637-0.128-110.456C191.623,290.159,191.746,289.184,191.861,287.48z"/>
	<path fill-rule="evenodd" clip-rule="evenodd" fill="#FFFFFF" d="M545.594,253.721c-8.889,1.924-17.775,3.855-26.666,5.769
		c-6.019,1.295-12.193,2.091-18.036,3.94c-13.961,4.42-27.764,1.231-41.582-0.274c-34.271-3.736-68.514-7.715-102.771-11.577
		c-9.93-1.119-19.857-2.258-29.804-3.217c-3.797-0.365-7.433,1.063-8.361,4.833c-0.62,2.521,0.114,6.017,1.563,8.196
		c1.125,1.692,4.228,2.598,6.566,2.874c29.934,3.545,59.889,6.911,89.838,10.33c5.783,0.66,11.563,1.354,17.47,2.823
		c-7.736,1.688-15.465,3.413-23.211,5.054c-29.142,6.173-58.28,12.357-87.448,18.401c-2.498,0.518-5.316,0.518-7.796-0.058
		c-66.132-15.344-132.239-30.793-198.348-46.237c-1.109-0.259-2.184-0.668-3.298-1.716c12.333-1.75,24.666-3.513,37.001-5.249
		c39.075-5.5,78.151-10.989,117.226-16.485c16.653-2.342,33.249-5.357,49.98-6.751c8.291-0.691,16.845,1.489,25.255,2.557
		c43.775,5.556,87.545,11.161,131.314,16.768c23.614,3.024,47.225,6.086,70.837,9.131
		C545.414,253.128,545.504,253.425,545.594,253.721z"/>
</g>
</svg>
