<?xml version="1.0" encoding="utf-8"?>
<!-- Generator: Adobe Illustrator 16.0.4, SVG Export Plug-In . SVG Version: 6.00 Build 0)  -->
<!DOCTYPE svg PUBLIC "-//W3C//DTD SVG 1.1//EN" "http://www.w3.org/Graphics/SVG/1.1/DTD/svg11.dtd">
<svg version="1.1" id="Layer_1" xmlns="http://www.w3.org/2000/svg" xmlns:xlink="http://www.w3.org/1999/xlink" x="0px" y="0px"
	 width="665.6px" height="665.6px" viewBox="0 0 665.6 665.6" enable-background="new 0 0 665.6 665.6" xml:space="preserve">
<g>
	<path fill="#FFFFFF" d="M64.035,603.6c0-179.935,0-359.87,0-539.902c179.858,0,359.751,0,539.805,0c0,179.902,0,359.902,0,539.902
		C423.987,603.6,244.029,603.6,64.035,603.6z M343.976,326.072c0-18.939,0.017-38.09-0.007-57.241
		c-0.014-11.83,1.797-24.069-0.662-35.375c-2.454-11.284-9.209-21.633-14.08-32.392c-0.754-1.667-1.68-3.281-2.221-5.015
		c-0.629-2.015-1.288-4.132-1.302-6.209c-0.107-14.998-0.032-29.998-0.064-44.996c-0.015-6.952-1.948-8.947-8.929-8.953
		c-43.164-0.034-86.328-0.037-129.491,0.005c-6.69,0.007-8.549,1.98-8.569,8.705c-0.037,12.165,0.022,24.331-0.053,36.497
		c-0.01,1.564-0.055,3.595-0.97,4.617c-12.314,13.776-24.701,27.49-37.274,41.029c-3.276,3.528-4.661,7.156-4.653,12.03
		c0.132,85.327,0.095,170.654,0.097,255.982c0,1.499-0.521,3.337,0.154,4.428c1.342,2.168,3.062,4.392,5.179,5.695
		c1.486,0.915,3.887,0.426,5.879,0.426c61.829,0.015,123.658,0.013,185.486,0.012c9.857,0,10.586-0.624,11.946-10.146
		c0.163-0.033,0.393-0.153,0.48-0.086c1.851,1.415,3.804,2.724,5.504,4.304c11.376,10.574,23.987,10.974,37.407,4.608
		c4.658-2.209,9.311-4.458,13.807-6.974c4.336-2.427,8.312-2.237,12.658,0.08c5.864,3.125,11.82,6.166,17.987,8.613
		c10.468,4.154,20.643,3.688,29.429-4.158c8.184-7.308,16.858-14.269,23.957-22.549c22.113-25.793,33.813-55.308,28.285-89.842
		c-3.622-22.628-13.051-42.24-32.317-55.953c-18.979-13.506-37.325-12.875-55.49,1.536c-3.44,2.729-7.391,4.817-11.881,7.7
		c-0.268-4.928-0.469-8.627-0.676-12.456c13.076-2.306,25.045-6.579,34.739-15.068c4.708-4.123,8.407-9.773,11.404-15.354
		c2.344-4.365,0.289-8.131-4.159-9.598c-13.297-4.384-25.756-3.122-36.235,6.908c-4.025,3.853-7.296,8.493-11.081,12.977
		c-6.254-14.012-18.589-16.931-32.232-17.13c-4.006-0.059-6.729,2.213-6.951,6.354c-0.206,3.87,1.986,6.238,5.85,6.822
		c1.971,0.298,3.973,0.404,5.965,0.537c8.979,0.596,14.487,4.362,16.787,13.037c1.856,6.999,2.485,14.324,3.658,21.504
		c-0.437,0.313-0.872,0.627-1.309,0.94c-3.832-2.498-7.836-4.772-11.461-7.541c-7.541-5.761-15.466-10.799-25.27-10.655
		C357.068,323.82,350.857,325.19,343.976,326.072z"/>
	<path fill-rule="evenodd" clip-rule="evenodd" d="M343.976,326.072c6.882-0.882,13.093-2.252,19.321-2.343
		c9.804-0.144,17.729,4.895,25.27,10.655c3.625,2.769,7.629,5.043,11.461,7.541c0.437-0.313,0.872-0.627,1.309-0.94
		c-1.173-7.18-1.802-14.505-3.658-21.504c-2.3-8.675-7.808-12.441-16.787-13.037c-1.992-0.133-3.994-0.239-5.965-0.537
		c-3.863-0.584-6.056-2.952-5.85-6.822c0.222-4.142,2.945-6.413,6.951-6.354c13.644,0.199,25.979,3.118,32.232,17.13
		c3.785-4.483,7.056-9.124,11.081-12.977c10.479-10.03,22.938-11.292,36.235-6.908c4.448,1.467,6.503,5.232,4.159,9.598
		c-2.997,5.581-6.696,11.231-11.404,15.354c-9.694,8.489-21.663,12.763-34.739,15.068c0.207,3.829,0.408,7.528,0.676,12.456
		c4.49-2.883,8.44-4.971,11.881-7.7c18.165-14.411,36.512-15.042,55.49-1.536c19.267,13.713,28.695,33.325,32.317,55.953
		c5.528,34.534-6.172,64.049-28.285,89.842c-7.099,8.28-15.773,15.241-23.957,22.549c-8.786,7.846-18.961,8.312-29.429,4.158
		c-6.167-2.447-12.123-5.488-17.987-8.613c-4.347-2.317-8.322-2.507-12.658-0.08c-4.496,2.516-9.148,4.765-13.807,6.974
		c-13.42,6.365-26.031,5.966-37.407-4.608c-1.7-1.58-3.653-2.889-5.504-4.304c-0.088-0.067-0.317,0.053-0.48,0.086
		c-1.359,9.522-2.089,10.146-11.946,10.146c-61.829,0.001-123.658,0.003-185.486-0.012c-1.992,0-4.393,0.489-5.879-0.426
		c-2.117-1.304-3.836-3.527-5.179-5.695c-0.675-1.091-0.154-2.929-0.154-4.428c-0.002-85.328,0.035-170.655-0.097-255.982
		c-0.008-4.874,1.377-8.502,4.653-12.03c12.573-13.539,24.96-27.253,37.274-41.029c0.915-1.022,0.96-3.053,0.97-4.617
		c0.075-12.166,0.016-24.332,0.053-36.497c0.02-6.725,1.878-8.698,8.569-8.705c43.164-0.042,86.328-0.039,129.491-0.005
		c6.981,0.006,8.914,2.001,8.929,8.953c0.033,14.998-0.043,29.998,0.064,44.996c0.015,2.077,0.673,4.194,1.302,6.209
		c0.542,1.733,1.467,3.348,2.221,5.015c4.871,10.759,11.625,21.107,14.08,32.392c2.459,11.306,0.648,23.545,0.662,35.375
		C343.992,287.982,343.976,307.132,343.976,326.072z M331.534,492.504c0.608-6.01,0.152-10.812-3.984-15.852
		c-20.611-25.108-31.469-53.536-26.522-86.525c3.1-20.672,11.27-38.965,27.389-52.919c2.589-2.242,3.449-4.393,3.438-7.622
		c-0.097-25.824-0.05-51.648-0.064-77.473c-0.001-1.624-0.15-3.247-0.24-5.06c-38.837,0-77.356,0-115.891,0
		c0,82.055,0,163.738,0,245.45C254.482,492.504,292.888,492.504,331.534,492.504z M502.027,403.702
		c-0.246-2.649-0.409-6.825-1.053-10.926c-3.129-19.916-10.548-37.535-27.909-49.331c-10.395-7.062-24.096-10.018-36.932,0.562
		c-3.834,3.159-8.01,6.02-12.363,8.405c-8.923,4.889-18.55,5.892-27.932,1.965c-5.742-2.403-10.96-6.216-16.118-9.817
		c-6.097-4.255-12.057-8.02-20.074-7.322c-13.162,1.146-22.917,8.132-30.372,18.11c-14.189,18.991-18.837,40.765-14.727,63.88
		c5.618,31.594,24.047,55.09,49.682,73.246c2.773,1.964,7.83,2.288,11.283,1.355c6.021-1.626,11.963-4.249,17.316-7.482
		c10.213-6.167,19.852-6.082,30.078-0.092c5.404,3.165,11.388,5.426,17.277,7.651c4.497,1.699,8.956,0.873,12.587-2.475
		c8.064-7.433,16.778-14.326,23.896-22.587C492.315,450.686,501.567,429.625,502.027,403.702z M148.239,246.919
		c0,82.184,0,163.789,0,245.594c18.304,0,36.348,0,54.454,0c0-82.043,0-163.757,0-245.594
		C184.411,246.919,166.484,246.919,148.239,246.919z M191.083,184.911c40.975,0,81.352,0,121.853,0c0-12.252,0-24.157,0-36.136
		c-40.802,0-81.289,0-121.853,0C191.083,160.99,191.083,172.78,191.083,184.911z M330.786,234.499
		c-0.81-2.076-1.325-3.615-1.997-5.083c-4.226-9.222-8.666-18.352-12.641-27.68c-1.414-3.317-3.219-4.275-6.7-4.264
		c-38.475,0.121-76.95,0.074-115.425,0.085c-1.42,0-2.841,0.126-4.919,0.225c1.213,1.724,2.002,2.93,2.875,4.072
		c7.079,9.259,14.659,18.188,21.032,27.909c2.679,4.086,5.232,4.822,9.456,4.807c34.144-0.127,68.289-0.071,102.433-0.071
		C326.679,234.499,328.458,234.499,330.786,234.499z M177.703,203.391c-9.247,10.397-18.057,20.304-27.292,30.688
		c17.503,0,33.794,0,50.771,0C193.177,223.617,185.631,213.753,177.703,203.391z M423.423,312.495
		c0.255,0.478,0.51,0.956,0.765,1.435c6.342-3.701,12.685-7.401,19.026-11.103c-0.282-0.482-0.564-0.966-0.847-1.449
		C433.686,301.029,428.211,306.173,423.423,312.495z"/>
	<path fill-rule="evenodd" clip-rule="evenodd" fill="#FFFFFF" d="M331.534,492.504c-38.646,0-77.052,0-115.876,0
		c0-81.712,0-163.396,0-245.45c38.535,0,77.054,0,115.891,0c0.089,1.812,0.239,3.436,0.24,5.06
		c0.015,25.824-0.032,51.648,0.064,77.473c0.012,3.229-0.848,5.38-3.438,7.622c-16.119,13.954-24.289,32.247-27.389,52.919
		c-4.947,32.989,5.911,61.417,26.522,86.525C331.687,481.692,332.143,486.495,331.534,492.504z"/>
	<path fill-rule="evenodd" clip-rule="evenodd" fill="#FFFFFF" d="M502.027,403.702c-0.46,25.923-9.712,46.984-25.359,65.143
		c-7.117,8.261-15.831,15.154-23.896,22.587c-3.631,3.348-8.09,4.174-12.587,2.475c-5.89-2.226-11.873-4.486-17.277-7.651
		c-10.227-5.99-19.865-6.075-30.078,0.092c-5.354,3.233-11.296,5.856-17.316,7.482c-3.453,0.933-8.51,0.608-11.283-1.355
		c-25.635-18.156-44.064-41.652-49.682-73.246c-4.11-23.115,0.538-44.889,14.727-63.88c7.455-9.979,17.209-16.965,30.372-18.11
		c8.018-0.697,13.978,3.067,20.074,7.322c5.158,3.602,10.376,7.414,16.118,9.817c9.382,3.927,19.009,2.924,27.932-1.965
		c4.354-2.386,8.529-5.246,12.363-8.405c12.836-10.579,26.537-7.624,36.932-0.562c17.361,11.796,24.78,29.415,27.909,49.331
		C501.618,396.876,501.781,401.052,502.027,403.702z"/>
	<path fill-rule="evenodd" clip-rule="evenodd" fill="#FFFFFF" d="M148.239,246.919c18.246,0,36.172,0,54.454,0
		c0,81.837,0,163.551,0,245.594c-18.106,0-36.15,0-54.454,0C148.239,410.708,148.239,329.103,148.239,246.919z"/>
	<path fill-rule="evenodd" clip-rule="evenodd" fill="#FFFFFF" d="M191.083,184.911c0-12.131,0-23.921,0-36.136
		c40.564,0,81.051,0,121.853,0c0,11.979,0,23.884,0,36.136C272.434,184.911,232.057,184.911,191.083,184.911z"/>
	<path fill-rule="evenodd" clip-rule="evenodd" fill="#FFFFFF" d="M330.786,234.499c-2.328,0-4.107,0-5.886,0
		c-34.145,0-68.289-0.056-102.433,0.071c-4.224,0.016-6.777-0.721-9.456-4.807c-6.373-9.722-13.953-18.65-21.032-27.909
		c-0.873-1.143-1.662-2.349-2.875-4.072c2.079-0.099,3.499-0.225,4.919-0.225c38.475-0.011,76.95,0.036,115.425-0.085
		c3.481-0.012,5.287,0.946,6.7,4.264c3.976,9.328,8.415,18.458,12.641,27.68C329.461,230.883,329.976,232.422,330.786,234.499z"/>
	<path fill-rule="evenodd" clip-rule="evenodd" fill="#FFFFFF" d="M177.703,203.391c7.928,10.362,15.474,20.226,23.479,30.688
		c-16.977,0-33.269,0-50.771,0C159.646,223.695,168.457,213.789,177.703,203.391z"/>
	<path fill-rule="evenodd" clip-rule="evenodd" fill="#FFFFFF" d="M423.423,312.495c4.788-6.321,10.263-11.466,18.944-11.117
		c0.282,0.483,0.564,0.967,0.847,1.449c-6.342,3.701-12.685,7.401-19.026,11.103C423.933,313.451,423.678,312.972,423.423,312.495z"
		/>
</g>
</svg>
