<?xml version="1.0" encoding="utf-8"?>
<!-- Generator: Adobe Illustrator 16.0.4, SVG Export Plug-In . SVG Version: 6.00 Build 0)  -->
<!DOCTYPE svg PUBLIC "-//W3C//DTD SVG 1.1//EN" "http://www.w3.org/Graphics/SVG/1.1/DTD/svg11.dtd">
<svg version="1.1" id="Layer_1" xmlns="http://www.w3.org/2000/svg" xmlns:xlink="http://www.w3.org/1999/xlink" x="0px" y="0px"
	 width="665.6px" height="665.6px" viewBox="0 0 665.6 665.6" enable-background="new 0 0 665.6 665.6" xml:space="preserve">
<g>
	<path d="M125.486,538.276c0-2.522,0-4.807,0-7.089c0-63.657,0-127.315,0-190.975c0-8.257,0-8.297,8.353-8.3
		c48.66-0.014,97.32-0.007,145.979-0.007c2.151,0,4.304,0,6.796,0c0-25.058,0-49.801,0-75.085c-19.343,0-38.725,0-59.396,0
		c36.303-47.809,71.874-94.652,107.905-142.105c35.975,47.383,71.543,94.233,107.671,141.818c-20.228,0-39.475,0-59.137,0
		c0,25.118,0,49.834,0,75.172c51.233,0,102.448,0,154.047,0c0,69.159,0,137.698,0,206.569
		C400.695,538.276,263.627,538.276,125.486,538.276z M141.345,522.331c126.987,0,253.702,0,380.646,0c0-58.162,0-116.059,0-174.236
		c-126.995,0-253.695,0-380.646,0C141.345,406.304,141.345,464.196,141.345,522.331z M303.062,240.748c0,30.821,0,60.754,0,90.735
		c21.622,0,42.825,0,64.503,0c0-30.357,0-60.293,0-90.779c14.341,0,28.212,0,43.257,0c-25.582-33.692-50.461-66.461-75.699-99.701
		c-25.325,33.355-50.219,66.141-75.733,99.745c8.147,0,15.105,0,22.063,0C288.406,240.748,295.359,240.748,303.062,240.748z"/>
	<path d="M433.92,490.929c-1.511,7.835-7.574,8.618-14.333,8.723c-3.58,0.055-7.233,0.669-10.705,1.589
		c-14.243,3.772-28.553,4.242-42.983,1.39c-0.936-0.185-1.822-0.606-3.207-1.082c1.523-4.903,2.98-9.595,4.59-14.776
		c11.976,2.896,23.703,1.938,35.823-0.889c-2.747-9.933-4.239-19.529-2.095-29.37c3.623-16.616,20.171-23.479,33.835-13.97
		c5.701,3.969,8.123,9.729,7.911,16.341c-0.174,5.421-1.361,10.81-2.224,17.105c2.473,0.471,5.282,1.078,8.118,1.514
		c1.471,0.227,3.299-0.381,4.434,0.29c7.001,4.138,15.089,2.192,22.476,4.184c1.813,0.489,4.387-0.62,6.216-1.679
		c2.949-1.706,5.57-3.979,8.679-6.27c2.311,5.176,4.327,9.697,6.43,14.407c-6.979,6.308-13.758,12.468-24.268,9.405
		c-0.977-0.284-2.27,0.176-3.321,0.552c-5.133,1.831-9.674,0.505-14.315-1.935c-2.776-1.459-6.046-2.033-9.14-2.822
		C442.032,492.667,438.18,491.887,433.92,490.929z M418.23,479.701c6.548-5.407,8.53-12.026,8.917-19.408
		c0.17-3.254-1.154-4.952-4.304-5.569c-3.19-0.625-4.628,1.152-5.536,3.734C414.813,465.55,415.952,472.463,418.23,479.701z"/>
	<path d="M252,364.074c0,5.172,0,10.09,0,15.276c-26.328,0-52.402,0-78.772,0c0-5.043,0-9.969,0-15.276
		C199.257,364.074,225.315,364.074,252,364.074z"/>
</g>
</svg>
