<?xml version="1.0" encoding="utf-8"?>
<!-- Generator: Adobe Illustrator 16.0.4, SVG Export Plug-In . SVG Version: 6.00 Build 0)  -->
<!DOCTYPE svg PUBLIC "-//W3C//DTD SVG 1.1//EN" "http://www.w3.org/Graphics/SVG/1.1/DTD/svg11.dtd">
<svg version="1.1" id="Layer_1" xmlns="http://www.w3.org/2000/svg" xmlns:xlink="http://www.w3.org/1999/xlink" x="0px" y="0px"
	 width="665.6px" height="665.6px" viewBox="0 0 665.6 665.6" enable-background="new 0 0 665.6 665.6" xml:space="preserve">
<g>
	<path fill="none" d="M0,0h665.6v665.6H0V0z"/>
	<g>
		<path d="M155.961,500.677h55.125V254.496h-55.125V500.677L155.961,500.677z M198.832,192.941h122.502v-36.925H198.832V192.941
			L198.832,192.941z M339.078,242.182H223.324c0.005-1.357-0.442-2.677-1.271-3.752l-25.398-33.174h125.45L339.078,242.182z
			 M185.717,211.141l23.75,31.041h-51.4L185.717,211.141z M339.713,484.883v15.794H223.324V254.496h116.39v91.535
			c3.827-3.133,7.926-5.748,12.238-7.671v-96.178c0-0.893-0.184-1.755-0.548-2.587l-18.061-39.286
			c0.075-0.408,0.242-0.786,0.242-1.209v-49.24c0-3.389-2.738-6.157-6.144-6.157H192.707c-3.374,0-6.127,2.77-6.127,6.157v43.43
			c-1.105,0.318-2.148,0.833-2.937,1.71l-38.361,43.082c-1.016,1.125-1.575,2.586-1.573,4.1v264.652
			c0,3.401,2.753,6.154,6.126,6.154H345.84c3.388,0,6.126-2.753,6.126-6.154v-9.243
			C347.618,493.618,343.526,489.372,339.713,484.883L339.713,484.883z"/>
		<path d="M433.177,495.333c-6.505-3.435-12.132-6.397-17.609-6.397c-4.659,0-9.59,2.603-15.913,5.945
			c-6.474,3.403-14.538,7.67-20.98,7.67c-2.405,0-4.446-0.605-6.232-1.846c-24.731-17.154-51.145-49.226-51.145-87.8
			c0-36.939,22.419-68.146,48.966-68.146c7.337,0,12.524,3.917,18.532,8.47c6.608,5.008,14.84,11.255,26.772,11.255
			c0,0,0.062-0.015,0.091-0.015l0.062,0.015c0.104,0,0.182-0.06,0.271-0.06c11.692-0.152,19.83-6.248,26.365-11.194
			c6.006-4.554,11.194-8.471,18.531-8.471c26.549,0,48.98,31.206,48.98,68.146c0,38.574-26.427,70.646-51.158,87.801
			c-6.415,4.443-16.61-0.62-25.535-5.371 M430.485,321.75c3.993-6.323,10.422-12.92,19.861-12.92c0.455,0,0.938,0.016,1.408,0.046
			C447.077,314.109,438.608,318.859,430.485,321.75 M460.89,331.25c-11.844,0-20.029,6.203-26.608,11.193
			c-4.085,3.088-7.836,5.797-12.103,7.277c-0.15-4.327-0.438-8.352-0.862-12.025c13.601-1.453,42.735-12.799,47.062-31.979
			c0.758-3.344-1.09-6.732-4.312-7.881c-4.706-1.664-9.318-2.512-13.734-2.512c-18.093,0-28.381,13.282-33.584,23.266
			c-5.673-12.949-15.959-18.198-33.066-18.198c-3.707,0-6.717,3.025-6.717,6.747c0,3.736,3.01,6.761,6.717,6.761
			c16.261,0,23.991,3.904,25.096,35.746c-4.175-1.513-7.882-4.16-11.89-7.2c-6.566-4.992-14.767-11.194-26.625-11.194
			c-33.839,0-62.414,37.394-62.414,81.657c0,43.793,29.406,79.812,56.94,98.916c4.053,2.815,8.712,4.237,13.885,4.237
			c9.788,0,19.482-5.129,27.305-9.259c3.055-1.604,8.17-4.326,9.59-4.356c2.18,0,7.504,2.829,11.453,4.916
			c7.699,4.07,16.443,8.697,25.64,8.697c5.022,0,9.638-1.42,13.705-4.234c27.531-19.12,56.954-55.14,56.954-98.917
			C523.32,368.644,494.73,331.249,460.89,331.25"/>
	</g>
</g>
</svg>
