<?xml version="1.0" encoding="utf-8"?>
<!-- Generator: Adobe Illustrator 16.0.4, SVG Export Plug-In . SVG Version: 6.00 Build 0)  -->
<!DOCTYPE svg PUBLIC "-//W3C//DTD SVG 1.1//EN" "http://www.w3.org/Graphics/SVG/1.1/DTD/svg11.dtd">
<svg version="1.1" id="Layer_1" xmlns="http://www.w3.org/2000/svg" xmlns:xlink="http://www.w3.org/1999/xlink" x="0px" y="0px"
	 width="665.6px" height="665.6px" viewBox="0 0 665.6 665.6" enable-background="new 0 0 665.6 665.6" xml:space="preserve">
<g>
	<path fill="none" d="M0,0h665.6v665.6H0V0z"/>
	<path d="M533.28,514.83H136.145v-30.663H533.28V514.83z M166.687,438.361h336.067v30.68H166.686L166.687,438.361L166.687,438.361z
		 M197.275,423.234h30.647V316.118h-30.647v107.119V423.234z M181.995,285.045H243.2v13.269c-0.01,1.48-1.211,2.676-2.691,2.678
		h-55.82c-1.48-0.001-2.683-1.197-2.692-2.678L181.995,285.045L181.995,285.045z M143.104,241.797L332.27,138.221l194.066,103.636
		v28.062H143.104V241.797z M487.431,298.313c0,1.466-1.21,2.678-2.694,2.678h-55.82c-1.479-0.002-2.681-1.198-2.69-2.678v-13.268
		h61.204L487.431,298.313L487.431,298.313z M441.504,423.234h30.647V316.119h-30.647v107.118V423.234z M365.171,315.604
		c8.562-1.287,15.262-8.381,15.262-17.29v-13.268h30.664v13.268c0,8.909,6.702,16.003,15.278,17.29v107.631H365.17L365.171,315.604
		L365.171,315.604z M319.38,423.234h30.648V316.119h-30.649v107.118L319.38,423.234z M362.63,300.99h-55.836
		c-1.477-0.007-2.671-1.202-2.678-2.678v-13.266h61.19v13.268c-0.009,1.476-1.202,2.669-2.678,2.678L362.63,300.99z
		 M243.048,315.602c8.577-1.284,15.279-8.38,15.279-17.29v-13.266h30.664v13.268c0,8.909,6.7,16.003,15.263,17.29v107.631H243.05
		V315.604L243.048,315.602z M517.88,469.039v-45.803h-30.603V315.604c8.576-1.287,15.277-8.381,15.277-17.29v-13.268h38.908v-52.264
		L332.176,121.021l-204.2,111.82v52.205h38.894v13.268c0,8.909,6.699,16.003,15.277,17.29v107.631H151.56v45.805h-30.542v60.919
		h427.39v-60.919h-30.525H517.88z"/>
</g>
</svg>
